<?xml version="1.0" standalone="no"?>
<!DOCTYPE svg PUBLIC "-//W3C//DTD SVG 20010904//EN"
 "http://www.w3.org/TR/2001/REC-SVG-20010904/DTD/svg10.dtd">
<svg version="1.0" xmlns="http://www.w3.org/2000/svg"
 width="196.000000pt" height="160.000000pt" viewBox="0 0 196.000000 160.000000"
 preserveAspectRatio="xMidYMid meet">

<g transform="translate(0.000000,160.000000) scale(0.100000,-0.100000)"
fill="#000000" stroke="none">
<path d="M680 1558 c-78 -40 -120 -154 -120 -330 l-1 -93 -32 -20 c-17 -11
-41 -34 -53 -52 -25 -37 -37 -33 -29 11 5 26 0 38 -29 69 -33 36 -38 38 -75
32 -33 -5 -47 -2 -71 15 -17 12 -49 24 -70 27 -35 5 -43 2 -75 -30 -45 -45
-47 -83 -5 -131 l31 -35 -32 1 c-54 2 -79 -38 -79 -122 0 -75 10 -89 72 -104
19 -4 28 -14 33 -35 7 -35 69 -109 101 -121 15 -6 38 -4 69 6 50 18 62 40 52
100 -3 18 -2 34 4 34 15 0 11 -128 -6 -153 -8 -13 -19 -57 -25 -100 -12 -85
-2 -147 30 -182 9 -11 23 -30 29 -42 6 -13 26 -26 43 -31 26 -6 34 -16 46 -50
20 -60 62 -98 122 -111 69 -15 806 -15 848 0 31 11 72 74 72 111 0 9 21 31 48
49 73 49 100 97 101 182 1 47 1 47 35 47 39 0 64 20 78 62 6 15 16 28 23 28
40 0 73 108 43 138 -9 9 -7 17 11 33 20 19 23 29 19 71 -6 62 -29 88 -79 88
-34 0 -40 4 -64 48 -24 43 -25 48 -10 57 52 30 65 47 65 81 0 19 -9 52 -19 73
-13 25 -16 42 -10 52 32 50 -18 131 -83 133 -19 1 -39 9 -46 19 -20 26 -101
60 -128 53 -13 -4 -31 -20 -39 -36 -13 -25 -22 -30 -51 -30 -50 0 -70 -14 -85
-57 l-12 -38 -19 85 c-36 163 -82 229 -153 216 -41 -8 -68 -40 -89 -104 -21
-65 -46 -214 -46 -278 l0 -54 -47 0 c-92 0 -93 1 -93 94 -1 187 -32 292 -99
325 -50 26 -47 26 -101 -1z m104 -98 c17 -48 20 -89 24 -312 3 -231 2 -258
-12 -258 -14 0 -16 19 -16 139 0 249 -45 387 -95 291 -11 -21 -15 -61 -15
-147 0 -154 10 -283 23 -283 6 0 7 19 3 48 -3 26 -9 110 -12 187 -6 119 -4
146 10 180 16 37 18 39 31 21 27 -36 39 -128 36 -281 -1 -82 -4 -152 -7 -154
-3 -3 -29 -8 -59 -11 -53 -6 -54 -6 -59 25 -3 16 -6 118 -7 225 -1 183 0 200
24 273 29 91 50 119 86 115 21 -2 29 -13 45 -58z m426 -2 c29 -67 65 -264 81
-440 13 -146 25 -175 22 -55 l-2 72 19 -70 c26 -98 25 -105 -7 -105 -16 0 -33
4 -39 8 -6 4 -19 67 -28 140 -19 147 -57 317 -75 335 -45 45 -66 -164 -37
-363 8 -52 14 -96 13 -96 -1 -1 -14 0 -29 3 -27 5 -28 7 -30 82 -8 342 20 541
76 541 7 0 24 -24 36 -52z m389 -104 c2 -2 -6 -19 -17 -38 l-20 -34 29 -13
c28 -11 32 -10 62 19 32 30 32 30 55 12 26 -22 28 -37 6 -61 -14 -16 -14 -21
10 -62 41 -69 37 -79 -36 -115 -5 -2 -8 3 -8 10 0 8 -7 23 -15 34 -15 19 -16
18 -40 -9 l-24 -28 -21 21 c-20 20 -20 22 -3 51 18 30 18 30 -7 49 -33 25 -44
25 -63 -2 -23 -34 -53 -13 -50 36 2 36 2 36 -37 36 -45 0 -44 -1 -30 36 10 25
13 26 55 21 44 -7 45 -6 65 33 l21 40 32 -16 c17 -9 34 -18 36 -20z m-401
-111 c18 -75 33 -162 56 -341 l5 -32 -42 6 c-23 4 -43 7 -44 8 -1 1 -6 36 -12
79 -19 133 -13 367 9 367 4 0 16 -39 28 -87z m205 -71 l15 -33 -36 3 c-36 3
-37 5 -40 45 -3 41 -3 41 21 30 14 -6 32 -26 40 -45z m-1149 -33 c42 -26 52
-29 78 -20 26 9 32 8 48 -11 16 -20 16 -25 3 -44 -12 -19 -12 -23 0 -31 10 -5
13 -19 10 -40 -5 -32 -25 -44 -38 -23 -10 17 -23 11 -29 -14 -3 -13 -9 -31
-12 -40 -5 -13 1 -16 25 -16 29 0 31 -3 31 -35 0 -33 -2 -35 -31 -35 l-32 0 7
-63 c6 -62 6 -64 -21 -76 -26 -12 -30 -10 -60 23 -18 19 -38 55 -44 81 -9 36
-16 45 -33 45 -57 1 -66 9 -66 64 0 64 11 77 53 65 51 -15 53 -13 83 57 3 6
-11 21 -31 32 -19 12 -41 33 -47 48 -11 23 -10 28 11 45 31 25 39 24 95 -12z
m1391 -119 c-3 -5 -18 -10 -33 -9 -24 0 -25 1 -7 9 28 12 47 12 40 0z m-617
-57 c3 -10 -17 -13 -77 -13 -68 0 -79 2 -74 15 4 13 20 15 76 13 45 -2 72 -7
75 -15z m392 7 c7 0 30 -84 30 -110 0 -6 -13 4 -30 22 -16 17 -30 39 -30 49 0
9 -3 25 -7 35 -5 14 -3 16 11 11 10 -4 21 -7 26 -7z m295 -58 l20 -53 47 5
c45 6 46 6 53 -24 8 -37 6 -40 -37 -49 -30 -6 -33 -10 -33 -41 0 -24 4 -34 14
-32 21 4 41 -18 41 -45 0 -18 -8 -28 -30 -36 -20 -8 -34 -23 -45 -50 -13 -33
-19 -38 -43 -35 -25 3 -27 6 -24 44 3 35 0 42 -17 47 -28 7 -29 47 -1 47 13 0
20 7 20 19 0 35 -12 51 -36 51 -21 0 -24 5 -24 34 0 26 5 36 20 41 23 7 21 30
-6 72 -19 30 -18 51 4 56 43 12 57 3 77 -51z m-532 -48 c95 -8 172 -16 172
-17 1 -1 15 -18 32 -38 32 -39 55 -122 67 -244 l6 -60 -26 33 c-33 41 -98 76
-130 68 -38 -10 -93 -65 -105 -106 -15 -49 -5 -102 26 -139 14 -16 25 -38 25
-49 0 -20 31 -38 48 -28 5 3 28 -2 53 -10 25 -9 60 -14 83 -11 l38 5 -5 -35
c-4 -20 -11 -41 -17 -47 -16 -16 -785 -25 -825 -10 -16 6 -40 22 -52 35 -26
29 -46 96 -31 105 6 4 5 10 -3 15 -28 17 -11 367 22 476 13 40 43 51 179 62
153 13 261 12 443 -5z m159 -356 c2 -25 8 -34 26 -36 28 -4 30 -42 2 -49 -13
-3 -20 -14 -20 -29 0 -19 -5 -24 -24 -24 -19 0 -25 7 -30 35 -6 29 -11 35 -32
35 -31 0 -27 24 4 28 18 3 22 10 22 38 0 29 3 34 24 34 21 0 25 -6 28 -32z
m128 -147 c0 -37 -2 -39 -37 -44 -20 -4 -38 -5 -40 -3 -2 2 10 18 27 36 16 18
30 36 30 41 0 5 5 9 10 9 6 0 10 -17 10 -39z m-219 2 c13 -16 12 -17 -3 -4
-10 7 -18 15 -18 17 0 8 8 3 21 -13z"/>
<path d="M855 781 c-13 -22 33 -131 56 -131 15 0 10 42 -10 86 -20 45 -36 60
-46 45z"/>
<path d="M1115 757 c-20 -31 -30 -83 -16 -91 12 -8 51 63 51 94 0 27 -16 25
-35 -3z"/>
<path d="M1186 695 c-41 -14 -74 -40 -64 -50 9 -9 120 38 120 50 -1 15 -14 15
-56 0z"/>
<path d="M776 672 c-7 -12 58 -42 89 -42 36 0 31 17 -11 35 -41 17 -70 19 -78
7z"/>
<path d="M967 633 c-17 -16 -3 -24 40 -21 62 4 71 28 11 28 -25 0 -48 -3 -51
-7z m50 -9 c-3 -3 -12 -4 -19 -1 -8 3 -5 6 6 6 11 1 17 -2 13 -5z"/>
<path d="M618 575 c-56 -31 -88 -161 -52 -213 46 -65 169 -81 222 -28 23 23
27 35 27 84 -1 122 -106 206 -197 157z m42 -99 c0 -2 -13 -6 -29 -8 -17 -2
-28 -1 -25 4 5 8 54 12 54 4z m60 -30 c0 -14 -84 -31 -101 -20 -16 10 -10 23
14 27 50 10 87 7 87 -7z"/>
</g>
</svg>
